<svg aria-hidden="true" style="position: absolute; width: 0; height: 0; overflow: hidden;" version="1.1" xmlns="http://www.w3.org/2000/svg" xmlns:xlink="http://www.w3.org/1999/xlink">
<defs>
<symbol id="icon-social_fb" viewBox="0 0 18 32">
<title>social_fb</title>
<path d="M17.102 0h-4.267c-0.154-0.011-0.334-0.018-0.516-0.018-4.075 0-7.378 3.303-7.378 7.378 0 0.181 0.007 0.362 0.019 0.54l-0.001-0.024v3.556h-4.284c-0.006-0-0.014-0-0.022-0-0.363 0-0.658 0.294-0.658 0.658 0 0.025 0.001 0.050 0.004 0.074l-0-0.003v5.333c0 0 0 0 0 0 0 0.363 0.294 0.658 0.658 0.658 0.006 0 0.012-0 0.019-0l-0.001 0h4.284v13.28c0 0 0 0 0 0 0 0.363 0.295 0.658 0.658 0.658 0.006 0 0.012-0 0.019-0l-0.001 0h5.582c0.005 0 0.012 0 0.018 0 0.363 0 0.658-0.294 0.658-0.658 0-0 0-0 0-0v0-13.351h5.013c0.005 0 0.012 0 0.018 0 0.363 0 0.658-0.294 0.658-0.658 0-0 0-0 0-0v0-5.333c0-0.001 0-0.001 0-0.002 0-0.181-0.075-0.344-0.195-0.46l-0-0c-0.122-0.121-0.29-0.196-0.475-0.196-0.002 0-0.003 0-0.005 0h-5.013v-3.004c0-1.476 0.356-2.222 2.347-2.222h2.862c0.005 0 0.012 0 0.018 0 0.363 0 0.658-0.295 0.658-0.658 0-0 0-0 0-0v0-4.889c0-0 0-0 0-0 0-0.363-0.294-0.658-0.658-0.658-0.006 0-0.012 0-0.019 0l0.001-0z"></path>
</symbol>
<symbol id="icon-social_instagram" viewBox="0 0 32 32">
<title>social_instagram</title>
<path d="M23.16 0h-14.32c-4.882 0-8.84 3.958-8.84 8.84v0 14.34c0.011 4.874 3.965 8.82 8.84 8.82 0 0 0 0 0 0h14.34c4.874-0.011 8.82-3.965 8.82-8.84 0 0 0 0 0-0v0-14.32c0-4.882-3.958-8.84-8.84-8.84v0zM29.16 23.16c0 3.314-2.686 6-6 6v0h-14.32c-3.314 0-6-2.686-6-6v0-14.32c0-3.314 2.686-6 6-6v0h14.34c3.314 0 6 2.686 6 6v0zM16 7.76c-4.551 0-8.24 3.689-8.24 8.24s3.689 8.24 8.24 8.24c4.551 0 8.24-3.689 8.24-8.24v0c-0.011-4.546-3.694-8.229-8.239-8.24h-0.001zM16 21.4c-2.982 0-5.4-2.418-5.4-5.4s2.418-5.4 5.4-5.4c2.982 0 5.4 2.418 5.4 5.4v0c-0.011 2.978-2.422 5.389-5.399 5.4h-0.001zM24.6 5.4c-0.008-0-0.018-0-0.029-0-1.105 0-2 0.895-2 2s0.895 2 2 2c1.105 0 2-0.895 2-2 0-0.545-0.218-1.039-0.572-1.4l0 0c-0.349-0.386-0.843-0.635-1.396-0.66l-0.004-0z"></path>
</symbol>
</defs>
</svg>
