<svg style="position:absolute;width:0;height:0" xmlns="http://www.w3.org/2000/svg" overflow="hidden"><defs><symbol id="icon-social_fb" viewBox="0 0 18 32"><title>social_fb</title><path d="M17.102 0h-4.267A7.378 7.378 0 0 0 4.96 7.9l-.001-.024v3.556H.653a.658.658 0 0 0-.654.732v-.003 5.333c0 .363.294.658.658.658h.019-.001 4.284v13.28c0 .363.295.658.658.658h.019-.001 5.6a.658.658 0 0 0 .658-.658V18.081h5.031a.658.658 0 0 0 .658-.658v-5.335a.638.638 0 0 0-.195-.46.673.673 0 0 0-.475-.196h-5.018V8.428c0-1.476.356-2.222 2.347-2.222h2.88a.659.659 0 0 0 .658-.658V.659a.658.658 0 0 0-.658-.658h-.019.001z"/></symbol><symbol id="icon-social_instagram" viewBox="0 0 32 32"><title>social_instagram</title><path d="M23.16 0H8.84A8.84 8.84 0 0 0 0 8.84v14.34A8.84 8.84 0 0 0 8.84 32h14.34A8.84 8.84 0 0 0 32 23.16V8.84A8.84 8.84 0 0 0 23.16 0zm6 23.16a6 6 0 0 1-6 6H8.84a6 6 0 0 1-6-6V8.84a6 6 0 0 1 6-6h14.34a6 6 0 0 1 6 6zM16 7.76c-4.551 0-8.24 3.689-8.24 8.24s3.689 8.24 8.24 8.24A8.24 8.24 0 0 0 24.24 16a8.26 8.26 0 0 0-8.239-8.24H16zm0 13.64a5.4 5.4 0 1 1 5.4-5.4 5.42 5.42 0 0 1-5.399 5.4H16zm8.6-16h-.029a2 2 0 1 0 1.428.6 1.999 1.999 0 0 0-1.396-.66h-.004z"/></symbol></defs></svg>